<?xml version="1.0" standalone="no"?>
<!DOCTYPE svg PUBLIC "-//W3C//DTD SVG 20010904//EN"
 "http://www.w3.org/TR/2001/REC-SVG-20010904/DTD/svg10.dtd">
<svg version="1.0" xmlns="http://www.w3.org/2000/svg"
 width="1024.000000pt" height="1024.000000pt" viewBox="0 0 1024.000000 1024.000000"
 preserveAspectRatio="xMidYMid meet">
<metadata>
Created by potrace 1.11, written by Peter Selinger 2001-2013
</metadata>
<g transform="translate(0.000000,1024.000000) scale(0.100000,-0.100000)"
fill="#000000" stroke="none">
<path d="M5077 9814 c-1 -1 -78 -4 -172 -8 -93 -4 -183 -8 -200 -10 -16 -2
-61 -6 -100 -10 -38 -4 -77 -9 -85 -11 -8 -2 -42 -6 -75 -10 -33 -3 -67 -8
-75 -10 -8 -2 -33 -6 -55 -10 -151 -21 -484 -105 -680 -170 -448 -149 -861
-358 -1239 -627 -98 -71 -300 -229 -386 -304 -52 -45 -373 -365 -410 -409
-363 -429 -604 -812 -795 -1260 -95 -223 -202 -540 -241 -715 -4 -19 -9 -39
-10 -45 -14 -54 -64 -313 -69 -360 -4 -33 -9 -62 -10 -65 -2 -3 -6 -34 -10
-70 -4 -36 -9 -73 -11 -84 -2 -10 -6 -59 -10 -110 -3 -50 -8 -107 -10 -126 -5
-45 -5 -514 0 -560 2 -19 7 -78 11 -130 3 -52 8 -106 10 -120 5 -38 18 -133
20 -150 9 -68 32 -205 39 -228 3 -9 8 -32 11 -51 11 -62 56 -255 75 -316 10
-33 30 -100 45 -150 15 -49 38 -117 51 -150 12 -33 26 -72 29 -88 4 -15 11
-30 16 -33 5 -3 9 -13 9 -22 1 -9 9 -35 20 -57 11 -22 19 -43 20 -47 1 -24
186 -396 254 -512 25 -43 46 -79 46 -81 0 -4 139 -222 152 -240 5 -5 49 -66
99 -135 85 -116 179 -232 274 -340 98 -111 362 -367 474 -460 23 -19 52 -44
64 -54 44 -38 264 -200 347 -256 449 -301 958 -525 1500 -660 69 -17 140 -33
159 -36 18 -3 43 -8 55 -10 70 -14 230 -40 301 -49 28 -3 66 -8 85 -10 19 -2
71 -7 115 -10 44 -4 100 -8 125 -10 56 -6 495 -6 570 0 94 6 208 18 305 30 22
3 63 8 90 11 40 4 221 38 375 70 222 45 605 176 865 294 306 139 683 371 914
565 266 222 430 386 640 640 190 230 447 650 565 925 69 159 93 219 133 330
164 460 251 878 293 1425 8 112 6 670 -3 715 -3 14 -8 51 -12 84 -4 32 -8 68
-10 80 -26 151 -39 224 -53 291 l-17 80 -2188 0 -2187 0 0 -907 0 -908 1255 0
c997 0 1255 -3 1255 -12 0 -27 -32 -148 -66 -252 -194 -592 -601 -1036 -1199
-1307 -38 -17 -101 -42 -140 -56 -38 -13 -77 -27 -85 -30 -8 -3 -17 -7 -20 -8
-3 0 -30 -8 -60 -17 -210 -63 -442 -104 -690 -124 -67 -5 -419 -5 -465 0 -23
3 -68 7 -101 11 -33 3 -70 7 -84 10 -13 3 -42 7 -65 10 -144 21 -389 90 -560
157 -107 42 -341 157 -386 189 -15 10 -30 19 -33 19 -8 0 -192 126 -241 165
-219 173 -373 328 -534 537 -47 62 -131 186 -157 233 -6 11 -27 47 -46 81
-141 246 -275 627 -313 891 -17 116 -25 181 -30 248 -6 72 -6 375 -1 425 3 19
7 64 11 100 3 36 8 76 10 90 2 14 7 41 9 60 13 85 73 337 96 400 131 366 262
607 478 880 76 96 290 315 370 380 24 19 52 42 62 51 10 8 29 23 42 32 114 85
171 124 216 151 30 17 68 40 85 50 67 40 267 136 362 174 185 74 410 135 575
158 25 3 47 7 50 9 3 2 41 6 85 10 44 4 89 9 100 11 24 5 372 5 430 0 22 -2
76 -8 120 -14 44 -6 100 -14 125 -17 64 -9 283 -62 365 -90 307 -101 563 -233
809 -418 43 -32 84 -61 90 -63 6 -2 317 302 690 676 l680 679 -22 20 c-13 10
-41 34 -64 53 -23 18 -46 38 -52 43 -6 6 -31 26 -56 45 -25 19 -51 40 -58 47
-7 7 -17 13 -20 13 -4 0 -19 11 -33 24 -52 48 -373 256 -530 344 -334 186
-746 350 -1104 441 -128 32 -284 65 -362 77 -26 3 -57 8 -68 10 -76 14 -107
18 -215 29 -30 4 -73 8 -95 10 -61 7 -453 23 -458 19z"/>
</g>
</svg>
